<?xml version="1.0" encoding="UTF-8"?>
<svg id="Layer_1" data-name="Layer 1" xmlns="http://www.w3.org/2000/svg" viewBox="0 0 1271.15 732.03">
  <defs>
    <style>
      .cls-1 {
        fill: #f6f7fa;
      }

      .cls-2 {
        fill: #ecb3ff;
      }

      .cls-3 {
        fill: #ec9fff;
      }

      .cls-4 {
        fill: #eca0ff;
      }

      .cls-5 {
        fill: #ec8aff;
      }

      .cls-6 {
        fill: #fff;
      }

      .cls-7 {
        fill: #8c6239;
      }

      .cls-8 {
        fill: #b3b3b3;
      }

      .cls-9 {
        fill: #a67c52;
      }

      .cls-10 {
        fill: #c69c6d;
      }

      .cls-11 {
        fill: #2a6cff;
      }

      .cls-12 {
        fill: #754c24;
      }
    </style>
  </defs>
  <rect class="cls-2" x="318.25" y="428.23" width="167.05" height="33.55" transform="translate(-184.5 570.45) rotate(-60)"/>
  <rect class="cls-2" x="649.93" y="324.13" width="183.25" height="33.55" transform="translate(-62.34 199.94) rotate(-14.74)"/>
  <rect class="cls-3" x="597.19" y="423" width="51.94" height="217.45"/>
  <rect class="cls-3" x="478.46" y="423" width="51.94" height="217.45"/>
  <polygon class="cls-5" points="700.15 439.03 515.96 499.83 371.21 370.71 410.66 180.79 594.86 120 739.6 249.12 700.15 439.03"/>
  <polygon class="cls-4" points="391.29 388.69 371.05 370.64 410.5 180.72 435.76 172.39 391.29 388.69"/>
  <path class="cls-6" d="m603,394.28c-3.55,21.08-21.28,37.1-42.63,37.1s-39.09-16.02-42.63-37.1h85.26Z"/>
  <circle class="cls-6" cx="563.96" cy="278.13" r="75.5"/>
  <path class="cls-1" d="m507.33,328.07c-11.74-13.31-18.87-30.79-18.87-49.93,0-21.84,9.27-41.51,24.1-55.3,13.48-12.53,8.61,120.91-5.23,105.23Z"/>
  <circle class="cls-11" cx="577.83" cy="273.62" r="40.97"/>
  <g>
    <path class="cls-12" d="m680.37,152.42l-264.21,38.38c-8.8,1.28-14.68-9.93-9.03-17.25,19.79-25.62,61.47-67.24,128.61-77,78.31-11.38,126.49,17.83,149.02,37.28,6.74,5.82,4.03,17.37-4.39,18.59Z"/>
    <path class="cls-7" d="m616.74,140.7l-181.91,26.42c-6.06.88-10.99-12.91-7.57-21.21,11.96-29.08,38.06-75.63,84.29-82.34,53.92-7.83,89.73,30.48,106.9,55.3,5.14,7.43,4.09,20.99-1.71,21.83Z"/>
    <path class="cls-9" d="m678.16,161.28l-300.18,43.6c-10,1.45-16.44-9.68-9.89-17.12,22.92-26.08,70.96-68.62,147.25-79.7,88.97-12.92,143.01,15.43,168.16,34.49,7.53,5.71,4.23,17.34-5.34,18.73Z"/>
  </g>
  <g>
    <rect class="cls-9" x="839.83" y="263" width="34" height="103"/>
    <path class="cls-9" d="m839.83,278.57c3.88-1.35,8.04-2.08,12.38-2.08,8.04,0,15.49,2.51,21.62,6.79v-13.38c-6.5-3.14-13.79-4.9-21.5-4.9-4.32,0-8.51.55-12.5,1.6-21.29,5.53-37,24.88-37,47.9s15.71,42.37,37,47.9c3.99,1.05,8.18,1.6,12.5,1.6,7.71,0,15-1.76,21.5-4.9v-13.8c-6.13,4.28-13.58,6.79-21.62,6.79-4.34,0-8.5-.73-12.38-2.08-14.8-5.12-25.42-19.17-25.42-35.71s10.62-30.61,25.42-35.73Z"/>
  </g>
  <path class="cls-8" d="m873.83,263h-34l.46-263s59.54,46,59.54,132c0,80-26,131-26,131Z"/>
  <path class="cls-9" d="m147.83,616.33v115.67h1036.4c18.83-32.71,44.13-83.06,65.6-148,42.28-127.91,8.61-218.07,8.61-218.07L147.83,616.03v.3Z"/>
  <path class="cls-10" d="m1270.93,445.01c.89,28.97-787.92,190.34-1123.1,257.59v-86.27l1110.57-250.08s11.02,29.53,12.53,78.76Z"/>
  <path class="cls-10" d="m.13,732c-.08.02-.12.03-.12.03v-.03s.12,0,.12,0Z"/>
</svg>